<?xml version="1.0" standalone="no"?>
<!DOCTYPE svg PUBLIC "-//W3C//DTD SVG 20010904//EN"
 "http://www.w3.org/TR/2001/REC-SVG-20010904/DTD/svg10.dtd">
<svg version="1.0" xmlns="http://www.w3.org/2000/svg"
 width="260.000000pt" height="280.000000pt" viewBox="0 0 260.000000 280.000000"
 preserveAspectRatio="xMidYMid meet">

<g transform="translate(0.000000,280.000000) scale(0.100000,-0.100000)"
fill="#000000" stroke="none">
<path d="M949 1894 c-31 -20 -69 -74 -69 -99 0 -16 7 -12 38 17 20 20 50 42
65 47 36 14 77 14 77 1 0 -5 9 -10 21 -10 11 0 30 -5 41 -11 18 -10 17 -7 -6
24 -37 48 -115 63 -167 31z"/>
<path d="M1530 1890 c0 -9 -69 -32 -97 -33 -23 -1 5 -24 64 -54 43 -21 64 -40
90 -80 l33 -52 29 16 c28 17 28 17 14 52 -41 98 -65 139 -88 149 -31 15 -45
15 -45 2z"/>
<path d="M1060 1805 c-33 -17 -152 -132 -175 -168 -20 -31 -20 -29 30 -187 14
-47 39 -107 53 -135 32 -59 58 -68 167 -57 l70 6 -62 7 c-100 12 -145 51 -167
144 -7 28 -5 27 46 -22 77 -76 103 -93 135 -93 37 0 128 44 173 84 29 26 31
27 11 4 -22 -25 -22 -26 -3 -21 11 3 33 23 48 44 24 35 26 46 21 97 -2 31 -16
83 -30 114 -21 47 -32 60 -64 73 -21 9 -40 16 -43 16 -3 0 -12 7 -20 14 -26
23 -99 45 -154 46 -47 1 -48 2 -18 9 18 4 50 4 70 0 l37 -9 -30 25 c-34 27
-58 30 -95 9z m86 -70 c20 -8 44 -25 54 -37 18 -22 18 -24 0 -43 -9 -11 -23
-30 -29 -42 -13 -26 -34 -31 -24 -6 4 11 3 14 -5 9 -7 -4 -12 -2 -12 4 0 7 6
10 14 7 8 -3 20 1 27 9 9 12 6 20 -19 44 -44 41 -74 47 -106 19 -14 -12 -23
-27 -19 -32 3 -6 1 -7 -4 -4 -6 4 -17 -1 -24 -10 -9 -11 -10 -14 -2 -9 10 5
11 -1 7 -26 -8 -41 -23 -60 -18 -21 4 28 4 28 -6 4 -6 -14 -8 -31 -6 -38 3 -7
-2 -41 -10 -76 -15 -59 -15 -65 4 -115 11 -28 18 -52 16 -52 -14 0 -45 90 -49
142 -4 44 -2 57 4 43 8 -18 10 -17 10 10 1 17 4 41 7 55 3 15 -5 6 -18 -20
l-23 -45 -3 32 c-8 79 40 161 112 194 51 22 77 23 122 4z m180 -91 c14 -24 24
-53 22 -65 -2 -16 -10 -9 -35 34 -17 31 -35 66 -39 79 -6 21 -5 21 10 9 9 -8
28 -34 42 -57z m-232 30 c9 -22 7 -92 -1 -97 -5 -3 -8 18 -8 46 0 43 -3 52
-17 51 -10 -1 -15 2 -12 7 9 14 31 10 38 -7z m180 -53 c4 -5 -3 -7 -14 -4 -23
6 -26 13 -6 13 8 0 17 -4 20 -9z m-144 -29 c0 -5 -7 -17 -16 -28 -8 -10 -14
-14 -11 -9 2 6 7 18 10 28 7 17 17 23 17 9z m164 -15 c12 -9 19 -29 21 -58 1
-24 0 -32 -2 -17 -9 56 -112 80 -173 41 -24 -16 -24 -16 -10 2 33 40 127 59
164 32z m-264 -57 c-10 -24 -10 -37 -1 -56 6 -14 9 -29 7 -33 -3 -4 2 -8 10
-8 17 0 33 34 36 73 4 42 16 26 23 -31 8 -60 -4 -88 -33 -79 -9 3 -3 -6 13
-20 51 -44 83 -30 86 40 1 21 -1 48 -5 59 -5 11 6 -4 24 -33 17 -30 29 -56 26
-59 -3 -3 -8 2 -12 11 -3 9 -10 16 -16 16 -5 0 -7 -4 -4 -9 9 -14 -33 -61 -55
-61 -26 0 -99 67 -115 106 -12 29 -6 86 13 117 12 20 14 -5 3 -33z m238 -69
c0 -23 -3 -39 -7 -34 -3 4 -23 21 -44 37 -47 35 -42 44 8 16 l38 -21 -6 23
c-3 13 -8 34 -12 48 l-6 25 15 -25 c8 -14 15 -45 14 -69z m-208 48 c0 -11 -4
-17 -10 -14 -5 3 -10 13 -10 21 0 8 5 14 10 14 6 0 10 -9 10 -21z m231 -93
c-25 -51 -46 -72 -56 -56 -3 5 -1 10 4 10 6 0 11 4 11 10 0 12 54 89 59 84 2
-1 -6 -23 -18 -48z"/>
<path d="M1081 1444 c0 -11 3 -14 6 -6 3 7 2 16 -1 19 -3 4 -6 -2 -5 -13z"/>
<path d="M1428 1705 c35 -29 76 -94 86 -137 3 -14 17 -39 30 -55 34 -41 66
-108 66 -140 0 -15 4 -34 9 -41 4 -7 7 30 7 85 -1 54 1 118 4 143 5 44 4 46
-38 73 -23 15 -52 27 -64 27 -12 0 -35 11 -52 23 -17 13 -42 29 -56 36 -20 10
-18 7 8 -14z"/>
<path d="M839 1665 c-31 -17 -43 -69 -33 -146 4 -29 3 -49 -3 -49 -13 0 -15
-73 -4 -102 9 -21 10 -21 10 10 2 64 32 234 47 264 19 37 16 40 -17 23z"/>
<path d="M1406 1593 c38 -85 31 -144 -25 -218 -23 -31 -61 -69 -84 -86 -40
-29 -41 -30 -12 -24 58 13 144 128 160 216 8 42 -24 147 -49 161 -13 7 -10 -4
10 -49z"/>
<path d="M1451 1447 c-6 -28 -18 -64 -25 -79 -10 -19 -11 -30 -4 -34 7 -4 8
-2 4 4 -4 7 -2 12 4 12 6 0 15 10 20 23 12 31 12 4 -1 -30 -16 -42 -73 -108
-156 -178 -59 -50 -89 -68 -143 -85 -67 -21 -117 -21 -150 0 -21 13 -11 18 55
25 78 9 121 32 192 101 32 31 47 49 33 40 -46 -31 -105 -56 -131 -56 -42 0
-115 26 -163 58 -52 36 -80 34 -66 -3 7 -18 4 -30 -10 -47 -18 -24 -18 -24 16
-68 31 -39 38 -53 35 -72 -2 -13 68 -20 146 -16 68 4 78 8 95 32 11 14 24 24
29 20 5 -3 9 0 9 6 0 7 6 10 13 7 7 -3 21 1 31 8 10 8 24 11 32 8 8 -3 20 0
28 6 7 6 40 16 72 22 60 11 148 51 137 63 -3 3 2 6 13 6 13 1 8 7 -18 20 -42
23 -51 45 -68 173 -7 48 -13 87 -14 87 -2 0 -8 -24 -15 -53z"/>
<path d="M1843 1223 c-20 -4 -22 -9 -16 -48 4 -33 0 -55 -16 -89 -11 -25 -21
-49 -21 -52 0 -4 -11 -21 -24 -39 -21 -28 -23 -33 -10 -55 9 -17 13 -20 14 -9
0 16 30 23 30 7 0 -4 7 -8 15 -8 8 0 15 5 15 10 0 6 -5 10 -11 10 -5 0 -7 5
-4 10 4 6 10 8 15 5 13 -8 18 18 8 38 -17 33 -2 49 37 41 27 -5 35 -3 35 9 0
8 9 26 20 40 11 14 20 36 20 49 0 14 3 28 7 32 4 3 8 15 10 26 2 15 -3 20 -21
20 -13 0 -36 2 -52 4 -16 2 -39 2 -51 -1z"/>
<path d="M245 1128 c-11 -6 -23 -16 -27 -22 -5 -7 -8 -6 -8 4 0 13 -2 13 -9 1
-22 -35 81 -114 125 -97 8 3 13 2 10 -3 -3 -5 3 -11 13 -14 14 -3 23 6 38 43
l20 47 -28 -2 c-19 -1 -26 2 -22 12 3 7 0 13 -7 13 -6 0 -8 5 -5 10 3 6 -4 10
-17 10 -13 0 -32 2 -43 5 -11 3 -29 0 -40 -7z"/>
<path d="M2221 984 c0 -11 3 -14 6 -6 3 7 2 16 -1 19 -3 4 -6 -2 -5 -13z"/>
<path d="M698 954 c-50 -32 -54 -43 -20 -55 16 -5 34 -21 40 -34 8 -16 17 -23
27 -19 9 4 15 1 15 -7 1 -9 8 -5 19 9 23 27 28 27 34 5 3 -10 5 -1 6 20 1 28
4 36 14 31 25 -15 0 5 -48 39 l-50 34 -37 -23z"/>
<path d="M2187 973 c-4 -3 -7 -16 -8 -27 0 -15 -2 -17 -6 -6 -10 26 -53 43
-53 20 0 -5 9 -10 20 -10 11 0 20 -4 20 -10 0 -5 -3 -9 -7 -9 -18 3 -33 -2
-33 -10 0 -5 14 -11 30 -13 17 -3 30 0 30 6 0 6 4 5 9 -2 7 -11 10 -10 15 3 8
23 8 27 -4 20 -7 -4 -9 2 -4 19 6 26 3 32 -9 19z"/>
<path d="M1970 705 c9 -11 9 -15 1 -15 -7 0 -9 -4 -6 -10 3 -5 2 -10 -4 -10
-6 0 -15 -9 -21 -20 -18 -33 7 -23 27 10 10 17 23 28 30 26 17 -7 16 -1 -3 18
-20 21 -41 21 -24 1z"/>
<path d="M930 653 c14 -6 13 -23 -1 -23 -7 0 -18 -8 -25 -17 -12 -16 -14 -15
-15 12 -1 17 -3 23 -5 15 -3 -8 -18 -23 -35 -33 -17 -9 -33 -26 -36 -37 -3
-11 -8 -18 -12 -16 -3 2 -6 -6 -6 -19 0 -19 6 -24 43 -29 34 -5 53 -1 92 19
27 14 58 25 68 25 10 0 26 6 36 13 16 12 12 17 -41 53 -32 21 -61 40 -66 41
-4 1 -3 -1 3 -4z"/>
<path d="M1613 564 c-7 -3 -13 -12 -13 -20 0 -8 -9 -14 -19 -14 -31 0 -63 -53
-59 -97 3 -38 4 -38 43 -36 31 2 46 10 68 35 16 18 47 52 69 75 35 36 38 42
21 46 -34 10 -98 16 -110 11z"/>
</g>
</svg>
